<mxfile host="app.diagrams.net" modified="2024-05-31T02:07:21.240Z" agent="Mozilla/5.0 (iPhone; CPU iPhone OS 17_4 like Mac OS X) AppleWebKit/605.1.15 (KHTML, like Gecko) CriOS/125.0.6422.80 Mobile/15E148 Safari/604.1" version="24.4.10" etag="Y2REYjuUhkURrmAHG6-c" type="github">
  <diagram name="Page-1" id="7Sj64WEWMavUT4Z0_fJR">
    <mxGraphModel>
      <root>
        <mxCell id="0" />
        <mxCell id="1" parent="0" />
      </root>
    </mxGraphModel>
  </diagram>
</mxfile>
